<?xml version="1.0" standalone="no"?><!DOCTYPE svg PUBLIC "-//W3C//DTD SVG 1.1//EN" "http://www.w3.org/Graphics/SVG/1.1/DTD/svg11.dtd"><svg t="1725254937901" class="icon" viewBox="0 0 1159 1024" version="1.1" xmlns="http://www.w3.org/2000/svg" p-id="1916" xmlns:xlink="http://www.w3.org/1999/xlink" width="226.3671875" height="200"><path d="M995.472 845.326c-22.522 0-40.54 18.017-40.54 40.54 0 22.521 18.018 40.539 40.54 40.539s40.54-18.018 40.54-40.54-18.018-40.54-40.54-40.54z m151.648-9.01L1011.988 85.585c-7.507-48.047-48.047-81.08-97.595-82.581H280.774c-51.05 1.501-91.59 36.035-97.595 85.584L48.047 836.317c-4.504 15.014-9.009 31.53-9.009 49.548 0 88.587 72.07 138.135 159.156 138.135h798.78c88.586 0 159.155-49.548 159.155-138.135 0-18.017-3.003-34.534-9.009-49.548zM493.982 376.869c0-66.064 36.036-120.117 102.1-120.117s93.091 63.061 93.091 129.126c43.543 0 106.604 24.023 106.604 67.566s-36.035 75.073-79.578 75.073H477.466c-43.542 0-79.577-31.53-79.577-75.073 0-45.044 52.55-76.575 96.093-76.575z m507.496 600.587h-828.81c-43.542 0-79.577-52.552-82.58-85.584 0-43.543 27.026-109.607 70.569-109.607l830.31 1.501c43.543 0 102.1 24.024 100.599 117.115-6.006 55.554-46.545 76.575-90.088 76.575z" fill="#5FADE0" p-id="1917"></path></svg>